<svg width="105" height="27" viewBox="0 0 105 27" fill="none" xmlns="http://www.w3.org/2000/svg">
<path d="M29.712 7.49V9.164H24.402V12.854H28.542V14.528H24.402V20H22.35V7.49H29.712ZM35.9157 20.162C34.9797 20.162 34.1337 19.952 33.3777 19.532C32.6217 19.1 32.0277 18.5 31.5957 17.732C31.1637 16.952 30.9477 16.052 30.9477 15.032C30.9477 14.024 31.1697 13.13 31.6137 12.35C32.0577 11.57 32.6637 10.97 33.4317 10.55C34.1997 10.13 35.0577 9.92 36.0057 9.92C36.9537 9.92 37.8117 10.13 38.5797 10.55C39.3477 10.97 39.9537 11.57 40.3977 12.35C40.8417 13.13 41.0637 14.024 41.0637 15.032C41.0637 16.04 40.8357 16.934 40.3797 17.714C39.9237 18.494 39.2997 19.1 38.5077 19.532C37.7277 19.952 36.8637 20.162 35.9157 20.162ZM35.9157 18.38C36.4437 18.38 36.9357 18.254 37.3917 18.002C37.8597 17.75 38.2377 17.372 38.5257 16.868C38.8137 16.364 38.9577 15.752 38.9577 15.032C38.9577 14.312 38.8197 13.706 38.5437 13.214C38.2677 12.71 37.9017 12.332 37.4457 12.08C36.9897 11.828 36.4977 11.702 35.9697 11.702C35.4417 11.702 34.9497 11.828 34.4937 12.08C34.0497 12.332 33.6957 12.71 33.4317 13.214C33.1677 13.706 33.0357 14.312 33.0357 15.032C33.0357 16.1 33.3057 16.928 33.8457 17.516C34.3977 18.092 35.0877 18.38 35.9157 18.38ZM47.3942 20.162C46.4582 20.162 45.6122 19.952 44.8562 19.532C44.1002 19.1 43.5062 18.5 43.0742 17.732C42.6422 16.952 42.4262 16.052 42.4262 15.032C42.4262 14.024 42.6482 13.13 43.0922 12.35C43.5362 11.57 44.1422 10.97 44.9102 10.55C45.6782 10.13 46.5362 9.92 47.4842 9.92C48.4322 9.92 49.2902 10.13 50.0582 10.55C50.8262 10.97 51.4322 11.57 51.8762 12.35C52.3202 13.13 52.5422 14.024 52.5422 15.032C52.5422 16.04 52.3142 16.934 51.8582 17.714C51.4022 18.494 50.7782 19.1 49.9862 19.532C49.2062 19.952 48.3422 20.162 47.3942 20.162ZM47.3942 18.38C47.9222 18.38 48.4142 18.254 48.8702 18.002C49.3382 17.75 49.7162 17.372 50.0042 16.868C50.2922 16.364 50.4362 15.752 50.4362 15.032C50.4362 14.312 50.2982 13.706 50.0222 13.214C49.7462 12.71 49.3802 12.332 48.9242 12.08C48.4682 11.828 47.9762 11.702 47.4482 11.702C46.9202 11.702 46.4282 11.828 45.9722 12.08C45.5282 12.332 45.1742 12.71 44.9102 13.214C44.6462 13.706 44.5142 14.312 44.5142 15.032C44.5142 16.1 44.7842 16.928 45.3242 17.516C45.8762 18.092 46.5662 18.38 47.3942 18.38ZM53.8867 14.996C53.8867 14 54.0907 13.118 54.4987 12.35C54.9187 11.582 55.4827 10.988 56.1907 10.568C56.9107 10.136 57.7087 9.92 58.5847 9.92C59.2327 9.92 59.8687 10.064 60.4927 10.352C61.1287 10.628 61.6327 11 62.0047 11.468V6.68H64.0747V20H62.0047V18.506C61.6687 18.986 61.2007 19.382 60.6007 19.694C60.0127 20.006 59.3347 20.162 58.5667 20.162C57.7027 20.162 56.9107 19.946 56.1907 19.514C55.4827 19.07 54.9187 18.458 54.4987 17.678C54.0907 16.886 53.8867 15.992 53.8867 14.996ZM62.0047 15.032C62.0047 14.348 61.8607 13.754 61.5727 13.25C61.2967 12.746 60.9307 12.362 60.4747 12.098C60.0187 11.834 59.5267 11.702 58.9987 11.702C58.4707 11.702 57.9787 11.834 57.5227 12.098C57.0667 12.35 56.6947 12.728 56.4067 13.232C56.1307 13.724 55.9927 14.312 55.9927 14.996C55.9927 15.68 56.1307 16.28 56.4067 16.796C56.6947 17.312 57.0667 17.708 57.5227 17.984C57.9907 18.248 58.4827 18.38 58.9987 18.38C59.5267 18.38 60.0187 18.248 60.4747 17.984C60.9307 17.72 61.2967 17.336 61.5727 16.832C61.8607 16.316 62.0047 15.716 62.0047 15.032ZM70.8919 20.126C70.0519 20.126 69.2959 19.982 68.6239 19.694C67.9519 19.394 67.4239 18.974 67.0399 18.434C66.6559 17.894 66.4639 17.264 66.4639 16.544H68.6599C68.7079 17.084 68.9179 17.528 69.2899 17.876C69.6739 18.224 70.2079 18.398 70.8919 18.398C71.5999 18.398 72.1519 18.23 72.5479 17.894C72.9439 17.546 73.1419 17.102 73.1419 16.562C73.1419 16.142 73.0159 15.8 72.7639 15.536C72.5239 15.272 72.2179 15.068 71.8459 14.924C71.4859 14.78 70.9819 14.624 70.3339 14.456C69.5179 14.24 68.8519 14.024 68.3359 13.808C67.8319 13.58 67.3999 13.232 67.0399 12.764C66.6799 12.296 66.4999 11.672 66.4999 10.892C66.4999 10.172 66.6799 9.542 67.0399 9.002C67.3999 8.462 67.9039 8.048 68.5519 7.76C69.1999 7.472 69.9499 7.328 70.8019 7.328C72.0139 7.328 73.0039 7.634 73.7719 8.246C74.5519 8.846 74.9839 9.674 75.0679 10.73H72.7999C72.7639 10.274 72.5479 9.884 72.1519 9.56C71.7559 9.236 71.2339 9.074 70.5859 9.074C69.9979 9.074 69.5179 9.224 69.1459 9.524C68.7739 9.824 68.5879 10.256 68.5879 10.82C68.5879 11.204 68.7019 11.522 68.9299 11.774C69.1699 12.014 69.4699 12.206 69.8299 12.35C70.1899 12.494 70.6819 12.65 71.3059 12.818C72.1339 13.046 72.8059 13.274 73.3219 13.502C73.8499 13.73 74.2939 14.084 74.6539 14.564C75.0259 15.032 75.2119 15.662 75.2119 16.454C75.2119 17.09 75.0379 17.69 74.6899 18.254C74.3539 18.818 73.8559 19.274 73.1959 19.622C72.5479 19.958 71.7799 20.126 70.8919 20.126ZM79.6852 11.54C80.0332 11.084 80.5072 10.7 81.1072 10.388C81.7072 10.076 82.3852 9.92 83.1412 9.92C84.0052 9.92 84.7912 10.136 85.4992 10.568C86.2192 10.988 86.7832 11.582 87.1912 12.35C87.5992 13.118 87.8032 14 87.8032 14.996C87.8032 15.992 87.5992 16.886 87.1912 17.678C86.7832 18.458 86.2192 19.07 85.4992 19.514C84.7912 19.946 84.0052 20.162 83.1412 20.162C82.3852 20.162 81.7132 20.012 81.1252 19.712C80.5372 19.4 80.0572 19.016 79.6852 18.56V24.716H77.6332V10.082H79.6852V11.54ZM85.7152 14.996C85.7152 14.312 85.5712 13.724 85.2832 13.232C85.0072 12.728 84.6352 12.35 84.1672 12.098C83.7112 11.834 83.2192 11.702 82.6912 11.702C82.1752 11.702 81.6832 11.834 81.2152 12.098C80.7592 12.362 80.3872 12.746 80.0992 13.25C79.8232 13.754 79.6852 14.348 79.6852 15.032C79.6852 15.716 79.8232 16.316 80.0992 16.832C80.3872 17.336 80.7592 17.72 81.2152 17.984C81.6832 18.248 82.1752 18.38 82.6912 18.38C83.2192 18.38 83.7112 18.248 84.1672 17.984C84.6352 17.708 85.0072 17.312 85.2832 16.796C85.5712 16.28 85.7152 15.68 85.7152 14.996ZM90.8764 8.768C90.5044 8.768 90.1924 8.642 89.9404 8.39C89.6884 8.138 89.5624 7.826 89.5624 7.454C89.5624 7.082 89.6884 6.77 89.9404 6.518C90.1924 6.266 90.5044 6.14 90.8764 6.14C91.2364 6.14 91.5424 6.266 91.7944 6.518C92.0464 6.77 92.1724 7.082 92.1724 7.454C92.1724 7.826 92.0464 8.138 91.7944 8.39C91.5424 8.642 91.2364 8.768 90.8764 8.768ZM91.8844 10.082V20H89.8324V10.082H91.8844ZM99.5825 9.92C100.363 9.92 101.059 10.082 101.671 10.406C102.295 10.73 102.781 11.21 103.129 11.846C103.477 12.482 103.651 13.25 103.651 14.15V20H101.617V14.456C101.617 13.568 101.395 12.89 100.951 12.422C100.507 11.942 99.9005 11.702 99.1325 11.702C98.3645 11.702 97.7525 11.942 97.2965 12.422C96.8525 12.89 96.6305 13.568 96.6305 14.456V20H94.5785V10.082H96.6305V11.216C96.9665 10.808 97.3925 10.49 97.9085 10.262C98.4365 10.034 98.9945 9.92 99.5825 9.92Z" fill="#333333"/>
<circle cx="8" cy="13" r="8" fill="#FF922C"/>
<path d="M11 18C11 16.3431 8 10.5 8 10.5C8 10.5 5 16.3431 5 18C5 19.6569 6.34315 21 8 21C9.65685 21 11 19.6569 11 18Z" fill="white"/>
</svg>
